<svg viewBox="0 0 600 460" xmlns="http://www.w3.org/2000/svg" role="img" aria-labelledby="dimsTitle">
  <title id="dimsTitle">Illustrative ten-dimension scoring diagram — placeholder shape, not real evaluation results</title>
  <defs>
    <linearGradient id="bgGrad2" x1="0" y1="0" x2="1" y2="1">
      <stop offset="0%" stop-color="#0b0d12" />
      <stop offset="100%" stop-color="#07080b" />
    </linearGradient>
  </defs>

  <rect width="600" height="460" fill="url(#bgGrad2)" />
  <rect x="0.5" y="0.5" width="599" height="459" fill="none" stroke="rgb(255 255 255 / 10%)" />

  <text x="24" y="34" font-family="ui-monospace, Menlo, Consolas, monospace" font-size="12" fill="rgb(255 255 255 / 45%)">$ psalm --report --format=radar</text>

  <g>
    <polygon points="300.0,70.0 411.7,106.3 480.7,201.3 480.7,318.7 411.7,413.7 300.0,450.0 188.3,413.7 119.3,318.7 119.3,201.3 188.3,106.3" fill="none" stroke="rgb(255 255 255 / 10%)" stroke-width="1" />
    <polygon points="300.0,212.5 327.9,221.6 345.2,245.3 345.2,274.7 327.9,298.4 300.0,307.5 272.1,298.4 254.8,274.7 254.8,245.3 272.1,221.6" fill="none" stroke="rgb(255 255 255 / 7%)" stroke-width="1" />
    <polygon points="300.0,165.0 355.8,183.1 390.4,230.6 390.4,289.4 355.8,336.9 300.0,355.0 244.2,336.9 209.6,289.4 209.6,230.6 244.2,183.1" fill="none" stroke="rgb(255 255 255 / 7%)" stroke-width="1" />
    <polygon points="300.0,117.5 383.8,144.7 435.5,216.0 435.5,304.0 383.8,375.3 300.0,402.5 216.2,375.3 164.5,304.0 164.5,216.0 216.2,144.7" fill="none" stroke="rgb(255 255 255 / 7%)" stroke-width="1" />

    <line x1="300" y1="260" x2="300.0" y2="70.0" stroke="rgb(255 255 255 / 14%)" stroke-width="1" />
    <line x1="300" y1="260" x2="411.7" y2="106.3" stroke="rgb(255 255 255 / 14%)" stroke-width="1" />
    <line x1="300" y1="260" x2="480.7" y2="201.3" stroke="rgb(255 255 255 / 14%)" stroke-width="1" />
    <line x1="300" y1="260" x2="480.7" y2="318.7" stroke="rgb(255 255 255 / 14%)" stroke-width="1" />
    <line x1="300" y1="260" x2="411.7" y2="413.7" stroke="rgb(255 255 255 / 14%)" stroke-width="1" />
    <line x1="300" y1="260" x2="300.0" y2="450.0" stroke="rgb(255 255 255 / 14%)" stroke-width="1" />
    <line x1="300" y1="260" x2="188.3" y2="413.7" stroke="rgb(255 255 255 / 14%)" stroke-width="1" />
    <line x1="300" y1="260" x2="119.3" y2="318.7" stroke="rgb(255 255 255 / 14%)" stroke-width="1" />
    <line x1="300" y1="260" x2="119.3" y2="201.3" stroke="rgb(255 255 255 / 14%)" stroke-width="1" />
    <line x1="300" y1="260" x2="188.3" y2="106.3" stroke="rgb(255 255 255 / 14%)" stroke-width="1" />

    <polygon points="300.0,155.5 378.2,152.4 381.3,233.6 444.6,307.0 367.0,352.2 300.0,383.5 244.2,336.9 164.5,304.0 200.6,227.7 224.1,155.5" fill="rgb(255 106 0 / 12%)" stroke="#ff6a00" stroke-width="1.6" stroke-linejoin="round" />

    <g font-family="ui-monospace, Menlo, Consolas, monospace" font-size="10" fill="rgb(255 255 255 / 40%)">
      <text x="300.0" y="44.0" text-anchor="middle">D1</text>
      <text x="427.0" y="85.3" text-anchor="start">D2</text>
      <text x="505.4" y="193.3" text-anchor="start">D3</text>
      <text x="505.4" y="326.7" text-anchor="start">D4</text>
      <text x="427.0" y="434.7" text-anchor="start">D5</text>
      <text x="300.0" y="476.0" text-anchor="middle">D6</text>
      <text x="173.0" y="434.7" text-anchor="end">D7</text>
      <text x="94.6" y="326.7" text-anchor="end">D8</text>
      <text x="94.6" y="193.3" text-anchor="end">D9</text>
      <text x="173.0" y="85.3" text-anchor="end">D10</text>
    </g>
  </g>

  <text x="24" y="430" font-family="ui-monospace, Menlo, Consolas, monospace" font-size="11" fill="rgb(255 255 255 / 35%)">
    Illustrative shape — placeholder, not real evaluation results.
  </text>
</svg>
